<?xml version="1.0" standalone="no"?>
<!DOCTYPE svg PUBLIC "-//W3C//DTD SVG 20010904//EN"
 "http://www.w3.org/TR/2001/REC-SVG-20010904/DTD/svg10.dtd">
<svg version="1.0" xmlns="http://www.w3.org/2000/svg"
 width="410.000000pt" height="410.000000pt" viewBox="0 0 410.000000 410.000000"
 preserveAspectRatio="xMidYMid meet">
<metadata>
Created by potrace 1.14, written by Peter Selinger 2001-2017
</metadata>
<g transform="translate(0.000000,410.000000) scale(0.100000,-0.100000)"
fill="#000000" stroke="none">
<path d="M1507 3992 c-78 -2 -88 -5 -83 -20 2 -9 8 -37 12 -62 4 -25 8 -47 9
-50 1 -3 5 -32 9 -65 5 -33 10 -69 12 -80 8 -47 14 -93 19 -130 3 -22 7 -51
10 -65 3 -14 7 -38 9 -55 3 -16 11 -73 20 -125 8 -52 18 -117 21 -145 3 -27 8
-61 11 -75 9 -37 13 -60 19 -110 2 -25 7 -56 9 -70 5 -29 14 -85 21 -137 11
-82 21 -135 30 -162 3 -10 -1 -23 -8 -29 -10 -9 -57 14 -203 97 -104 60 -365
209 -579 333 l-391 224 -73 -191 c-41 -104 -80 -203 -87 -220 -21 -51 -75
-186 -105 -265 -15 -41 -50 -131 -77 -200 -28 -69 -47 -128 -44 -131 4 -3 106
-34 227 -68 214 -61 234 -66 274 -75 11 -3 29 -10 40 -16 12 -6 21 -8 21 -4 0
3 7 1 15 -6 8 -7 15 -10 15 -7 0 2 37 -6 83 -20 45 -13 89 -26 97 -28 14 -3
496 -140 532 -151 9 -3 19 -12 22 -21 7 -16 -55 -80 -759 -790 -188 -191 -296
-306 -290 -312 6 -5 172 -138 370 -296 198 -157 372 -296 386 -308 15 -12 34
-26 42 -32 8 -5 33 -25 55 -43 l40 -32 54 85 c29 47 58 93 63 103 52 91 150
248 157 250 4 2 8 8 8 14 0 13 91 162 101 166 5 2 9 9 9 15 0 6 37 72 83 146
46 75 94 154 107 176 13 22 28 42 32 43 4 2 8 9 8 16 0 6 12 29 27 51 30 43
39 59 93 153 36 65 54 79 75 62 7 -6 179 -294 382 -640 202 -347 371 -630 376
-630 4 0 16 9 27 20 11 11 23 20 26 20 3 0 16 9 28 20 23 22 127 104 170 135
16 11 34 26 41 32 8 7 16 13 19 13 3 0 17 11 32 24 40 36 56 49 93 75 18 13
44 34 58 47 14 13 30 24 34 24 4 0 18 10 31 23 13 12 39 34 58 47 19 14 42 32
52 40 20 18 31 27 83 65 22 17 44 36 48 42 4 7 12 13 17 13 6 0 18 8 28 17 10
10 28 25 40 32 21 15 20 16 -35 75 -30 34 -88 95 -128 136 -40 41 -218 230
-395 420 -178 190 -353 376 -388 413 -55 58 -63 70 -51 81 11 11 66 28 154 49
6 1 16 6 23 10 6 5 12 6 12 3 0 -2 26 2 58 10 31 8 68 17 80 20 13 2 49 12 80
20 64 17 56 15 177 43 50 12 98 24 108 26 9 3 26 7 38 10 11 2 29 7 39 10 10
3 28 8 41 10 12 2 58 14 103 26 45 11 92 23 105 25 14 3 58 14 100 26 41 11
80 21 86 22 5 2 36 8 67 16 63 14 62 8 18 104 -11 25 -20 47 -20 50 0 2 -10
26 -22 53 -12 26 -22 50 -23 53 0 3 -8 21 -17 40 -9 19 -33 76 -53 125 -20 50
-45 107 -56 128 -10 20 -16 37 -14 37 3 0 -1 13 -10 30 -8 16 -14 31 -13 33 2
2 -2 10 -8 18 -7 8 -26 50 -43 94 -18 44 -38 93 -46 110 -8 16 -21 47 -29 68
-16 39 -35 47 -55 23 -7 -8 -24 -17 -39 -21 -15 -4 -29 -10 -32 -14 -3 -4 -43
-26 -90 -49 -47 -23 -127 -64 -178 -91 -51 -27 -96 -49 -100 -50 -4 -1 -23
-11 -42 -23 -33 -20 -166 -89 -420 -219 -63 -33 -131 -68 -150 -79 -29 -17
-37 -18 -48 -6 -11 11 -11 22 -2 57 7 24 14 55 16 69 2 14 9 45 14 70 6 25 12
54 14 65 4 18 82 394 92 440 2 11 11 54 19 95 8 41 17 86 20 100 3 14 10 45
15 70 5 25 12 56 15 70 3 14 8 39 10 55 3 17 8 37 10 45 4 15 11 50 21 108 3
18 11 55 18 83 l13 49 -71 1 c-149 3 -1095 4 -1179 1z"/>
</g>
</svg>
